<svg xmlns="http://www.w3.org/2000/svg" width="72" height="102" viewBox="0 0 72 102">
    <g fill="none" fill-rule="evenodd">
        <g>
            <g>
                <g>
                    <path fill="#000" fill-rule="nonzero" d="M22.169 78.053l-1.964 2.091v5.425h-3.01V68.172h3.01v8.16l1.666-2.067 5.07-6.093h3.64l-6.437 7.707 6.806 9.69h-3.57l-5.211-7.516zm17.702 6.215c-.853 1.002-2.066 1.503-3.637 1.503-1.404 0-2.467-.41-3.19-1.229-.721-.82-1.082-2.005-1.082-3.556v-8.364h2.908v8.329c0 1.638.682 2.457 2.046 2.457 1.412 0 2.365-.505 2.86-1.515v-9.27h2.907v12.91h-2.74l-.072-1.265zm8.59-11.61l.084 1.492c.958-1.153 2.216-1.73 3.773-1.73 2.7 0 4.073 1.539 4.12 4.617v8.532h-2.91v-8.364c0-.82-.178-1.426-.533-1.82-.355-.394-.936-.59-1.743-.59-1.174 0-2.048.528-2.623 1.586v9.188h-2.911v-12.91h2.743zm15.1-3.07v3.118h2.313v2.134H63.56V82c0 .49.099.845.296 1.062.198.217.551.326 1.06.326.34 0 .682-.04 1.03-.119v2.23c-.67.181-1.317.272-1.938.272-2.261 0-3.391-1.221-3.391-3.663V74.84h-2.156v-2.134h2.156v-3.118h2.943zm12.52 14.68c-.853 1.002-2.066 1.503-3.637 1.503-1.404 0-2.467-.41-3.19-1.229-.721-.82-1.082-2.005-1.082-3.556v-8.364h2.907v8.329c0 1.638.682 2.457 2.047 2.457 1.412 0 2.365-.505 2.86-1.515v-9.27h2.907v12.91h-2.74l-.072-1.265zm12.915-8.96c-.388-.064-.788-.096-1.2-.096-1.347 0-2.256.509-2.724 1.527v8.83H82.13v-12.91h2.809l.073 1.443c.71-1.121 1.695-1.682 2.954-1.682.42 0 .767.056 1.042.167l-.012 2.72z" transform="translate(-151 -104) translate(134 100)"/>
                    <path fill="#3A32ED" d="M29.332 4.976C31.786 4.1 47.37 8.04 53.988 18.104c1.32-2.858 2.979-8 8.64-8.243 2.7-.116 4.504.833 6.336 1.849 1.222.677 2.444 1.084 3.666 1.22l-.07.116c.943.254 3.938.851 13.284 1.867.348.037.938.548.938.548s-10.044-.535-15.128-.501l-.246.002c-1.63.27-3.055 1.016-4.276 2.235-1.833 1.83-.91.376-4.073 7.114-2.236 4.765.736 6.007-1.832 13.414-1.833 5.284-7.33 7.113-7.127 8.13.228 1.139 7.33 3.454 7.33 3.454.408 2.44-.271 4.675-2.036 6.707-1.765 2.033-3.869 3.32-6.312 3.862 0 0-7.534-10.162-6.72-24.999.036-.653.103-1.287.197-1.903-3.352.098-6.9-.34-10.031-1.857-16.894-8.18-17.715-15.775-16.9-16.462.625-.528 12.625-.092 25.192 4.254-4.46-2.1-9.201-4.164-11.97-5.455-2.412-1.124-3.925-8.276-3.518-8.48zM64.12 12.86c-.449 0-.813.363-.813.811 0 .448.364.81.813.81.449 0 .813-.362.813-.81 0-.448-.364-.81-.813-.81z" transform="translate(-151 -104) translate(134 100)"/>
                    <path fill="#000" fill-rule="nonzero" d="M21.117 103.432c1.574 0 2.49-.936 2.49-2.31 0-1.026-.76-1.962-1.677-2.103.787-.167 1.51-.886 1.51-1.964 0-1.283-.916-2.181-2.413-2.181h-3.832v8.558h3.922zm-.275-4.92h-2.579V95.73h2.58c.966 0 1.482.62 1.482 1.397 0 .79-.516 1.384-1.483 1.384zm.08 3.85h-2.659v-2.995h2.66c1.068 0 1.616.703 1.616 1.498 0 .925-.6 1.498-1.617 1.498zm4.817-5.99c.355 0 .647-.28.647-.636s-.292-.648-.647-.648c-.343 0-.635.292-.635.648 0 .356.292.636.635.636zm.647 7.06v-6.204h-1.068v6.204h1.068zm2.875 0V98.98c.28-.508 1.078-1.003 1.662-1.003.152 0 .266.013.38.04v-1.003c-.837 0-1.547.481-2.042 1.145v-1.015h-.95v6.288h.95zm8.669.06v-8.618h-.956v3.32c-.497-.684-1.248-1.098-2.077-1.098-1.618 0-2.739 1.292-2.739 3.282 0 2.028 1.134 3.268 2.74 3.268.866 0 1.617-.452 2.076-1.085v.93h.956zM35 102.576c-1.244 0-1.988-.997-1.988-2.348 0-1.35.744-2.36 1.988-2.36.77 0 1.514.455 1.86.985v2.764c-.346.53-1.09.959-1.86.959zm11.196.855l1.993-6.204h-1.01l-1.527 4.946-1.644-4.946h-.829l-1.644 4.946-1.528-4.946h-1.01l1.994 6.204h.971l1.631-4.984 1.632 4.984h.97zm7.979.057v-4.343c0-1.53-1.08-2.132-2.375-2.132-1.003 0-1.79.34-2.45 1.046l.444.68c.546-.601 1.143-.876 1.879-.876.889 0 1.55.484 1.55 1.334v1.139c-.496-.59-1.194-.864-2.033-.864-1.04 0-2.146.667-2.146 2.08 0 1.374 1.105 2.093 2.146 2.093.826 0 1.524-.3 2.032-.876v.72h.953zm-2.761-.698c-.891 0-1.515-.58-1.515-1.385 0-.817.624-1.397 1.515-1.397.674 0 1.323.264 1.692.791v1.2c-.37.527-1.018.79-1.692.79zm6.283.855c.577 0 .931-.168 1.18-.402l-.288-.726c-.131.143-.394.26-.67.26-.432 0-.642-.338-.642-.804v-3.89h1.286v-.856h-1.286v-1.712h-.984v1.712h-1.05v.855h1.05v4.098c0 .934.472 1.465 1.404 1.465zm4.903 0c1.125 0 1.79-.47 2.263-1.098l-.64-.602c-.409.562-.933.824-1.572.824-1.317 0-2.135-1.047-2.135-2.446 0-1.4.818-2.434 2.135-2.434.64 0 1.163.249 1.573.824l.639-.601c-.473-.628-1.138-1.1-2.263-1.1-1.841 0-3.081 1.44-3.081 3.31 0 1.884 1.24 3.323 3.08 3.323zm8.89-.214v-4.375c0-1.347-.677-1.976-1.966-1.976-.931 0-1.774.539-2.208 1.052v-3.259h-.957v8.558h.957v-4.529c.37-.5 1.085-.962 1.825-.962.83 0 1.391.32 1.391 1.411v4.08h.958zm2.345-7.06c.355 0 .647-.28.647-.636s-.292-.648-.647-.648c-.343 0-.635.292-.635.648 0 .356.292.636.635.636zm.647 7.06v-6.204h-1.069v6.204h1.07zm6.84 0v-4.395c0-1.362-.677-2.023-1.97-2.023-.92 0-1.765.544-2.2 1.063v-.908h-.96v6.263h.96v-4.577c.358-.506 1.075-.973 1.83-.973.831 0 1.381.35 1.381 1.453v4.097h.96zM85.869 106c1.507 0 2.937-.65 2.937-2.731v-6.1h-.957v.95c-.498-.69-1.239-1.105-2.069-1.105-1.622 0-2.745 1.248-2.745 3.264 0 2.029 1.136 3.251 2.745 3.251.868 0 1.622-.481 2.069-1.118v.897c0 1.379-.958 1.886-1.98 1.886-.88 0-1.494-.234-2.004-.859l-.485.729c.727.728 1.442.936 2.49.936zm.23-3.423c-1.25 0-1.995-.998-1.995-2.354 0-1.369.746-2.354 1.994-2.354.772 0 1.519.461 1.853.998v2.7c-.334.536-1.08 1.01-1.853 1.01z" transform="translate(-151 -104) translate(134 100)"/>
                </g>
            </g>
        </g>
    </g>
</svg>
