<svg xmlns="http://www.w3.org/2000/svg" width="18" height="18" viewBox="0 0 18 18">
    <defs>
        <filter id="prefix__a" width="110.7%" height="174.1%" x="-5.3%" y="-37%" filterUnits="objectBoundingBox">
            <feOffset dy="2" in="SourceAlpha" result="shadowOffsetOuter1"/>
            <feGaussianBlur in="shadowOffsetOuter1" result="shadowBlurOuter1" stdDeviation="4"/>
            <feColorMatrix in="shadowBlurOuter1" result="shadowMatrixOuter1" values="0 0 0 0 0 0 0 0 0 0 0 0 0 0 0 0 0 0 0.3 0"/>
            <feMerge>
                <feMergeNode in="shadowMatrixOuter1"/>
                <feMergeNode in="SourceGraphic"/>
            </feMerge>
        </filter>
    </defs>
    <g fill="#FFF" fill-rule="evenodd" filter="url(#prefix__a)" transform="translate(-61 -10)">
        <path d="M69.246 10.346L61.8 17.897c-.33.335-.35.866-.046 1.225.272.32.751.359 1.071.088l.05-.046.475-.483 1.376 7.498h-.234c-.503 0-.91.407-.91.91 0 .503.407.911.91.911h10.954c.491 0 .889-.398.889-.889 0-.49-.398-.888-.889-.888h-.256l1.419-7.542.485.492c.284.288.748.292 1.035.008.02-.019.037-.039.054-.06.294-.36.269-.883-.058-1.214l-7.455-7.561c-.388-.393-1.02-.398-1.414-.01l-.01.01zm.712 1.916l5.098 5.176-1.571 8.51H66.43l-1.571-8.51 5.098-5.176zm0 3.456c-1.753 0-3.188 1.457-3.188 3.237s1.435 3.237 3.188 3.237c1.753 0 3.188-1.457 3.188-3.237s-1.435-3.237-3.188-3.237zm0 1.515c.943 0 1.696.764 1.696 1.723 0 .958-.753 1.722-1.696 1.722-.944 0-1.697-.764-1.697-1.722 0-.959.753-1.723 1.697-1.723zm0 6.9c-.352 0-.638.29-.638.648 0 .358.286.648.638.648.352 0 .638-.29.638-.648 0-.357-.286-.647-.638-.647z"/>
    </g>
</svg>
