<svg xmlns="http://www.w3.org/2000/svg" width="130" height="123" viewBox="0 0 130 123">
    <g fill="none" fill-rule="evenodd">
        <path fill="#3146D0" d="M33.323 6.326c3.26-1.164 23.951 4.039 32.721 17.366 1.751-3.784 3.956-10.59 11.471-10.911 3.585-.153 5.98 1.102 8.413 2.448 1.623.896 3.245 1.435 4.867 1.614l-.093.155c1.252.336 5.228 1.127 17.64 2.47.461.05 1.245.726 1.245.726s-13.417-.712-20.149-.663l-.265.003c-2.163.358-4.056 1.345-5.678 2.96-2.433 2.421-1.207.496-5.407 9.417-2.97 6.308.977 7.953-2.433 17.758-2.434 6.996-9.734 9.418-9.463 10.763.303 1.509 9.733 4.574 9.733 4.574.54 3.229-.36 6.189-2.704 8.88-2.343 2.69-5.137 4.394-8.381 5.112 0 0-10.003-13.454-8.922-33.096.048-.864.137-1.705.262-2.52-4.45.13-9.161-.45-13.32-2.458C20.428 30.094 19.34 20.04 20.42 19.13c.83-.699 16.76-.121 33.443 5.63-5.916-2.775-12.206-5.502-15.88-7.209-3.2-1.486-5.201-10.955-4.66-11.225zM79.496 16.75c-.596 0-1.08.48-1.08 1.074 0 .592.484 1.073 1.08 1.073.596 0 1.08-.48 1.08-1.073s-.484-1.074-1.08-1.074z"/>
        <path fill="#2A2A2A" fill-rule="nonzero" d="M38.436 105.68l-8.192-8.936 7.655-8.99H32.58l-6.124 7.117h-.645v-7.117H21.38v17.926h4.432v-6.742h.94l5.882 6.742h5.802zm13.886-13.43h-4.297v6.233c0 2.595-1.101 3.746-2.794 3.746-1.37 0-2.31-1.07-2.31-2.65v-7.33h-4.27v8.24c0 3.372 2.095 5.592 5.237 5.592 1.693 0 3.116-.615 4.137-1.685v1.284h4.297V92.25zm11.55-.402c-1.692 0-3.116.615-4.136 1.685V92.25h-4.298v13.43h4.298v-6.233c0-2.595 1.1-3.746 2.793-3.746 1.37 0 2.31 1.07 2.31 2.65v7.33h4.27v-8.24c0-3.372-2.095-5.592-5.237-5.592zm17.163 9.872c-.564.321-1.37.535-1.96.535-1.129 0-1.8-.562-1.8-1.953v-4.655h3.975v-3.398h-3.975v-3.96h-4.298v3.96h-2.444v3.398h2.444v5.083c0 3.532 2.015 5.351 5.372 5.351 1.531 0 2.632-.428 3.68-.99l-.994-3.37zm15.847-9.47h-4.297v6.233c0 2.595-1.102 3.746-2.794 3.746-1.37 0-2.31-1.07-2.31-2.65v-7.33h-4.27v8.24c0 3.372 2.095 5.592 5.237 5.592 1.692 0 3.116-.615 4.137-1.685v1.284h4.297V92.25zm12.06-.188c.376 0 .645.027.967.107l-.188 4.28h-.779c-3.008 0-4.647 1.552-4.647 5.03v4.2h-4.297V92.25h4.297v2.569c.967-1.606 2.445-2.756 4.647-2.756z"/>
    </g>
</svg>
