<svg xmlns="http://www.w3.org/2000/svg" width="18" height="18" viewBox="0 0 18 18">
    <defs>
        <filter id="prefix__a" width="110.7%" height="174.1%" x="-5.3%" y="-37%" filterUnits="objectBoundingBox">
            <feOffset dy="2" in="SourceAlpha" result="shadowOffsetOuter1"/>
            <feGaussianBlur in="shadowOffsetOuter1" result="shadowBlurOuter1" stdDeviation="4"/>
            <feColorMatrix in="shadowBlurOuter1" result="shadowMatrixOuter1" values="0 0 0 0 0 0 0 0 0 0 0 0 0 0 0 0 0 0 0.3 0"/>
            <feMerge>
                <feMergeNode in="shadowMatrixOuter1"/>
                <feMergeNode in="SourceGraphic"/>
            </feMerge>
        </filter>
    </defs>
    <g fill="#FFF" fill-rule="evenodd" filter="url(#prefix__a)" transform="translate(-180 -10)">
        <path d="M181.8 17.2c0-2.978 2.422-5.4 5.4-5.4s5.4 2.422 5.4 5.4-2.422 5.4-5.4 5.4-5.4-2.422-5.4-5.4m15.936 9.264l-4.855-4.857c.948-1.218 1.519-2.746 1.519-4.407 0-3.97-3.23-7.2-7.2-7.2s-7.2 3.23-7.2 7.2 3.23 7.2 7.2 7.2c1.661 0 3.188-.571 4.407-1.52l4.857 4.856c.175.176.406.264.636.264.23 0 .46-.088.636-.264.352-.352.352-.92 0-1.272"/>
    </g>
</svg>
