<svg xmlns="http://www.w3.org/2000/svg" width="18" height="18" viewBox="0 0 18 18">
    <defs>
        <filter id="prefix__a" width="110.7%" height="174.1%" x="-5.3%" y="-37%" filterUnits="objectBoundingBox">
            <feOffset dy="2" in="SourceAlpha" result="shadowOffsetOuter1"/>
            <feGaussianBlur in="shadowOffsetOuter1" result="shadowBlurOuter1" stdDeviation="4"/>
            <feColorMatrix in="shadowBlurOuter1" result="shadowMatrixOuter1" values="0 0 0 0 0 0 0 0 0 0 0 0 0 0 0 0 0 0 0.3 0"/>
            <feMerge>
                <feMergeNode in="shadowMatrixOuter1"/>
                <feMergeNode in="SourceGraphic"/>
            </feMerge>
        </filter>
    </defs>
    <g fill="#FFF" fill-rule="evenodd" filter="url(#prefix__a)" transform="translate(-296 -10)">
        <path d="M313.542 20.707l-1.403-.792c.04-.307.06-.613.06-.915 0-.301-.02-.607-.06-.916l1.403-.791c.211-.12.365-.318.427-.55.063-.235.029-.484-.094-.692l-1.842-3.118c-.25-.42-.787-.566-1.218-.326l-1.341.757c-.54-.428-1.14-.778-1.774-1.036V10.9c0-.497-.403-.9-.9-.9h-3.6c-.497 0-.9.403-.9.9v1.428c-.635.258-1.234.608-1.773 1.036l-1.343-.757c-.428-.24-.968-.095-1.217.326l-1.842 3.118c-.124.208-.157.457-.094.691.062.233.216.431.427.55l1.403.792c-.04.309-.061.615-.061.916 0 .302.02.608.06.915l-1.402.792c-.21.12-.365.318-.427.551-.063.234-.03.483.094.691l1.842 3.118c.25.421.79.568 1.217.326l1.343-.758c.539.43 1.138.78 1.773 1.037V27.1c0 .497.403.9.9.9h3.6c.497 0 .9-.403.9-.9v-1.428c.634-.258 1.234-.608 1.774-1.037l1.341.758c.43.242.969.095 1.218-.326l1.842-3.118c.123-.208.157-.457.094-.69-.062-.234-.216-.433-.427-.552m-3.278-2.897c.09.404.136.804.136 1.19 0 .385-.045.786-.136 1.19-.088.387.09.786.435.98l1.159.653-.926 1.568-1.128-.636c-.345-.194-.78-.14-1.065.135-.622.597-1.381 1.04-2.196 1.282-.381.114-.643.465-.643.864V26.2h-1.8v-1.164c0-.4-.262-.75-.643-.864-.815-.242-1.575-.685-2.196-1.282-.285-.275-.72-.33-1.066-.135l-1.126.636-.927-1.568 1.158-.653c.346-.194.523-.593.436-.98-.09-.404-.136-.805-.136-1.19 0-.386.046-.786.136-1.19.087-.387-.09-.785-.436-.98l-1.158-.654.927-1.568 1.126.636c.346.196.78.142 1.066-.134.621-.597 1.38-1.04 2.196-1.283.38-.113.643-.464.643-.862V11.8h1.8v1.165c0 .398.262.749.643.862.815.243 1.574.686 2.196 1.283.285.276.72.329 1.065.134l1.128-.636.926 1.568-1.159.653c-.345.196-.523.594-.435.981M305 15.4c-1.985 0-3.6 1.615-3.6 3.6s1.615 3.6 3.6 3.6 3.6-1.615 3.6-3.6-1.615-3.6-3.6-3.6m0 5.4c-.993 0-1.8-.807-1.8-1.8s.807-1.8 1.8-1.8 1.8.807 1.8 1.8-.807 1.8-1.8 1.8"/>
    </g>
</svg>
